<svg viewBox="0 0 840 878" xmlns="http://www.w3.org/2000/svg" xmlns:xlink="http://www.w3.org/1999/xlink"><defs><linearGradient x1="8%" y1="55%" x2="93%" y2="60%" id="a"><stop stop-color="#F9482D" offset="0%"/><stop stop-color="#FDA021" offset="100%"/></linearGradient><linearGradient x1="4%" y1="50%" x2="53%" y2="95%" id="d"><stop stop-color="#13BF79" offset="0%"/><stop stop-color="#1BCB91" offset="51%"/><stop stop-color="#0DC98D" offset="100%"/></linearGradient><filter x="-2.2%" y="-3.7%" width="104.4%" height="107.3%" filterUnits="objectBoundingBox" id="c"><feMorphology radius="10" in="SourceAlpha" result="shadowSpreadInner1"/><feGaussianBlur stdDeviation="10" in="shadowSpreadInner1" result="shadowBlurInner1"/><feOffset dy="1" in="shadowBlurInner1" result="shadowOffsetInner1"/><feComposite in="shadowOffsetInner1" in2="SourceAlpha" operator="arithmetic" k2="-1" k3="1" result="shadowInnerInner1"/><feColorMatrix values="0 0 0 0 0.772560009 0 0 0 0 0.0381422062 0 0 0 0 0.0381422062 0 0 0 0.5 0" in="shadowInnerInner1"/></filter><filter x="-1.7%" y="-1.7%" width="103.4%" height="103.4%" filterUnits="objectBoundingBox" id="f"><feMorphology radius="10" in="SourceAlpha" result="shadowSpreadInner1"/><feGaussianBlur stdDeviation="10" in="shadowSpreadInner1" result="shadowBlurInner1"/><feOffset in="shadowBlurInner1" result="shadowOffsetInner1"/><feComposite in="shadowOffsetInner1" in2="SourceAlpha" operator="arithmetic" k2="-1" k3="1" result="shadowInnerInner1"/><feColorMatrix values="0 0 0 0 0.00480685836 0 0 0 0 0.546025815 0 0 0 0 0.315342325 0 0 0 0.6 0" in="shadowInnerInner1"/></filter><path d="M552.88 713.986c13.373 23.965 47.87 23.916 61.175-.087l117.798-212.515L902.028 800.25c9.565 16.798 30.936 22.661 47.733 13.096 16.798-9.564 22.662-30.935 13.097-47.733l-201-353c-13.513-23.731-47.787-23.535-61.027.35L583.34 624.922 465.006 412.876c-13.344-23.913-47.742-23.93-61.11-.03L261.443 667.93l14 34 21 46 137.965-246.239L552.88 713.986z" id="b"/><path d="M583 215c97.789 0 189.447 38.266 257.831 105.422C910.866 389.2 951 482.87 951 583c0 203.24-164.76 368-368 368-19.33 0-35 15.67-35 35s15.67 35 35 35c241.9 0 438-196.1 438-438 0-119.11-47.818-230.714-131.122-312.522C808.534 190.594 699.322 145 583 145c-241.9 0-438 196.1-438 438a35 35 0 0 0 .045 1.778c3.312 65.092 12.095 116.217 26.935 153.953 1.943 4.94 6.55 15.767 13.82 32.482 7.77-10.353 16.79-18.652 27.058-24.898 10.268-6.245 21.504-9.833 33.707-10.763-4.622-10.707-7.769-18.187-9.441-22.44-11.564-29.403-19.13-73.255-22.123-130.99C215.475 379.285 380.052 215 583 215z" id="e"/></defs><g><g transform="translate(-143.93 -143.93)"><use fill="url(#a)" xlink:href="#b"/><use filter="url(#c)" xlink:href="#b"/></g><g transform="rotate(-115 465.188 556.882)"><use fill="url(#d)" xlink:href="#e"/><use filter="url(#f)" xlink:href="#e"/></g></g></svg>