<svg viewBox="0 0 840 878" xmlns="http://www.w3.org/2000/svg" xmlns:xlink="http://www.w3.org/1999/xlink"><defs><linearGradient id="a" x1="8%" x2="93%" y1="55%" y2="60%"><stop offset="0" stop-color="#f9482d"/><stop offset="1" stop-color="#fda021"/></linearGradient><linearGradient id="b" x1="4%" x2="53%" y1="50%" y2="95%"><stop offset="0" stop-color="#13bf79"/><stop offset=".51" stop-color="#1bcb91"/><stop offset="1" stop-color="#0dc98d"/></linearGradient><filter id="c" height="107.3%" width="104.4%" x="-2.2%" y="-3.7%"><feMorphology in="SourceAlpha" radius="10" result="shadowSpreadInner1"/><feGaussianBlur in="shadowSpreadInner1" result="shadowBlurInner1" stdDeviation="10"/><feOffset dy="1" in="shadowBlurInner1" result="shadowOffsetInner1"/><feComposite in="shadowOffsetInner1" in2="SourceAlpha" k2="-1" k3="1" operator="arithmetic" result="shadowInnerInner1"/><feColorMatrix in="shadowInnerInner1" values="0 0 0 0 0.772560009 0 0 0 0 0.0381422062 0 0 0 0 0.0381422062 0 0 0 0.5 0"/></filter><filter id="d" height="103.4%" width="103.4%" x="-1.7%" y="-1.7%"><feMorphology in="SourceAlpha" radius="10" result="shadowSpreadInner1"/><feGaussianBlur in="shadowSpreadInner1" result="shadowBlurInner1" stdDeviation="10"/><feOffset in="shadowBlurInner1" result="shadowOffsetInner1"/><feComposite in="shadowOffsetInner1" in2="SourceAlpha" k2="-1" k3="1" operator="arithmetic" result="shadowInnerInner1"/><feColorMatrix in="shadowInnerInner1" values="0 0 0 0 0.00480685836 0 0 0 0 0.546025815 0 0 0 0 0.315342325 0 0 0 0.6 0"/></filter><path id="e" d="m552.88 713.986c13.373 23.965 47.87 23.916 61.175-.087l117.798-212.515 170.175 298.866c9.565 16.798 30.936 22.661 47.733 13.096 16.798-9.564 22.662-30.935 13.097-47.733l-201-353c-13.513-23.731-47.787-23.535-61.027.35l-117.491 211.959-118.334-212.046c-13.344-23.913-47.742-23.93-61.11-.03l-142.453 255.084 14 34 21 46 137.965-246.239z"/><path id="f" d="m583 215c97.789 0 189.447 38.266 257.831 105.422 70.035 68.778 110.169 162.448 110.169 262.578 0 203.24-164.76 368-368 368-19.33 0-35 15.67-35 35s15.67 35 35 35c241.9 0 438-196.1 438-438 0-119.11-47.818-230.714-131.122-312.522-81.344-79.884-190.556-125.478-306.878-125.478-241.9 0-438 196.1-438 438a35 35 0 0 0 .045 1.778c3.312 65.092 12.095 116.217 26.935 153.953 1.943 4.94 6.55 15.767 13.82 32.482 7.77-10.353 16.79-18.652 27.058-24.898 10.268-6.245 21.504-9.833 33.707-10.763-4.622-10.707-7.769-18.187-9.441-22.44-11.564-29.403-19.13-73.255-22.123-130.99.474-202.837 165.051-367.122 367.999-367.122z"/></defs><g transform="translate(-143.93 -143.93)"><use fill="url(#a)" xlink:href="#e"/><use filter="url(#c)" xlink:href="#e"/></g><g transform="matrix(-.42261826 -.90630779 .90630779 -.42261826 157.078451 1213.83401)"><use fill="url(#b)" xlink:href="#f"/><use filter="url(#d)" xlink:href="#f"/></g></svg>