<svg width="12" height="16" fill="none" xmlns="http://www.w3.org/2000/svg"><path d="M7.267.224a.835.835 0 0 0-.956-.129.86.86 0 0 0-.459.88c.193 1.538-.225 3.123-1.118 4.239a1.08 1.08 0 0 1-.151.16c-.052-.077-.14-.251-.25-.641-.126-.433-.13-1.095-.13-1.102a.452.452 0 0 0-.796-.293c-.055.063-1.33 1.56-1.732 2.176-1.572 2.414-2.03 4.56-1.405 6.56C1.002 14.413 3.288 16 5.88 16c.078 0 .158-.002.237-.005 2.872-.107 5.238-2.168 5.753-5.013.636-3.522-1.085-7.544-4.603-10.758zm3.711 10.597c-.438 2.423-2.451 4.179-4.895 4.27-2.286.092-4.317-1.267-4.95-3.286-.54-1.728-.115-3.624 1.301-5.797.186-.285.602-.807.972-1.257.016.08.035.158.056.232.16.557.37 1.097.81 1.275.267.11.691.116 1.168-.478C6.473 4.489 6.953 2.752 6.766.993c3.214 2.986 4.787 6.65 4.212 9.828z" fill="#FFFFFF"/></svg>
