<svg width="20" height="20" fill="none" xmlns="http://www.w3.org/2000/svg"><path d="M14.696 0c-.968 0-1.917.305-2.745.881-.828.577-1.503 1.403-1.951 2.389C9.449 2.064 8.562 1.104 7.482.545A4.67 4.67 0 0 0 4.04.183C2.889.508 1.865 1.267 1.133 2.34.401 3.41.003 4.732 0 6.095c0 3.365 1.817 6.44 4.165 8.965A40.954 40.954 0 0 0 10 20a46.892 46.892 0 0 0 5.835-4.94C18.443 12.32 20 9.46 20 6.095c0-.8-.137-1.594-.404-2.334a6.224 6.224 0 0 0-1.15-1.978 5.317 5.317 0 0 0-1.72-1.32A4.706 4.706 0 0 0 14.695 0z" fill="#1CA677"/></svg>